<?xml version="1.0" encoding="UTF-8"?><svg id="Layer_2" xmlns="http://www.w3.org/2000/svg" viewBox="0 0 208.48 186.06"><defs><style>.cls-1{fill:#f49313;}.cls-2{fill:#8298ad;}</style></defs><path class="cls-1" d="M97.36,57.97c-2.62,0-4.74,2.12-4.74,4.74v30.32c0,1.76.97,3.37,2.53,4.2l15.74,8.3c.71.37,1.46.54,2.21.54,1.7,0,3.35-.92,4.2-2.53,1.22-2.32.33-5.19-1.98-6.41l-13.21-6.96v-27.46c0-2.62-2.12-4.74-4.74-4.74Z"/><path class="cls-2" d="M165.24,86.62c-1.85-1.85-4.85-1.85-6.7,0l-5.71,5.71c-.38-30.28-25.1-54.81-55.47-54.81s-55.5,24.9-55.5,55.5,24.9,55.5,55.5,55.5c2.62,0,4.74-2.12,4.74-4.74s-2.12-4.74-4.74-4.74c-25.37,0-46.02-20.64-46.02-46.02s20.64-46.02,46.02-46.02,45.56,20.23,45.98,45.25l-5.63-5.63c-1.85-1.85-4.85-1.85-6.7,0-1.85,1.85-1.85,4.85,0,6.7l13.77,13.77c.93.93,2.14,1.39,3.35,1.39s2.43-.46,3.35-1.39l13.77-13.77c1.85-1.85,1.85-4.85,0-6.7Z"/><path class="cls-1" d="M112.22,136.2c-2.67.92-4.08,3.82-3.16,6.49.92,2.67,3.82,4.08,6.49,3.16s4.08-3.82,3.16-6.49-3.82-4.08-6.49-3.16Z"/><path class="cls-1" d="M126.09,128.51c-2.19,1.78-2.53,4.99-.76,7.18,1.77,2.19,4.99,2.53,7.18.75,2.19-1.77,2.53-4.99.75-7.18-1.77-2.19-4.99-2.53-7.18-.76Z"/><path class="cls-1" d="M143.5,114.8c-2.42-1.45-5.55-.67-7.01,1.75-1.45,2.42-.67,5.55,1.75,7s5.55.67,7.01-1.75c1.45-2.42.67-5.55-1.75-7.01Z"/></svg>