<?xml version="1.0" encoding="UTF-8"?>
<svg id="Layer_1" xmlns="http://www.w3.org/2000/svg" version="1.1" viewBox="0 0 208 187.2">
  <!-- Generator: Adobe Illustrator 29.4.0, SVG Export Plug-In . SVG Version: 2.1.0 Build 152)  -->
  <defs>
    <style>
      .st0 {
        fill: #f49313;
      }

      .st1 {
        fill: #8298ad;
      }
    </style>
  </defs>
  <path class="st1" d="M118.8,138.6c-4.5,2.1-9.5,3.3-14.8,3.3s-10.3-1.2-14.8-3.3v3.5c0,1.4-.4,2.7-1.2,3.9,4.9,2.1,10.3,3.2,16,3.2s11.1-1.1,16-3.2c-.8-1.1-1.2-2.4-1.2-3.9v-3.5h0Z"/>
  <path class="st1" d="M126,80.9c5.2,4.3,9.1,10,11,16.6,1.4-.4,3-.7,4.6-.7s1.9,0,2.8.3c-2.6-10.2-9-18.9-17.6-24.6,0,.1,0,.2,0,.4v4.8c0,1.2-.3,2.3-.8,3.3Z"/>
  <path class="st1" d="M71,97.4c2-6.6,5.9-12.3,11-16.6-.5-1-.8-2.1-.8-3.3v-4.8c0-.1,0-.2,0-.4-8.6,5.6-15,14.3-17.6,24.6.9-.2,1.9-.3,2.8-.3,1.6,0,3.1.2,4.6.7Z"/>
  <circle class="st1" cx="104" cy="48.4" r="10.3"/>
  <path class="st1" d="M88,78.7h31.9c.6,0,1.1-.5,1.1-1.1v-4.8c0-5.2-3.3-9.5-7.9-11.2-2.6,1.8-5.7,2.8-9.1,2.8s-6.5-1.1-9.1-2.8c-4.6,1.6-7.9,6-7.9,11.2v4.8c0,.6.5,1.1,1.1,1.1h0Z"/>
  <path class="st1" d="M75.5,126.1c-2.6,1.8-5.8,2.9-9.1,2.9s-6.6-1.1-9.2-2.9c-4.6,1.7-7.9,6-7.9,11.2v4.8c0,.6.5,1.1,1.1,1.1h31.9c.6,0,1.1-.5,1.1-1.1v-4.8c0-5.2-3.3-9.5-7.9-11.2h0Z"/>
  <path class="st1" d="M66.4,123.2c5.7,0,10.3-4.6,10.3-10.3s-4.6-10.3-10.3-10.3-10.3,4.6-10.3,10.3,4.6,10.3,10.3,10.3Z"/>
  <path class="st1" d="M150.8,126.1c-2.6,1.8-5.8,2.9-9.1,2.9s-6.6-1.1-9.1-2.9c-4.6,1.7-7.9,6-7.9,11.2v4.8c0,.6.5,1.1,1.1,1.1h31.9c.6,0,1.1-.5,1.1-1.1v-4.8c0-5.2-3.3-9.6-7.9-11.2h0Z"/>
  <path class="st1" d="M131.3,112.9c0,5.7,4.6,10.3,10.3,10.3s10.3-4.6,10.3-10.3-4.6-10.3-10.3-10.3-10.3,4.6-10.3,10.3Z"/>
  <path class="st0" d="M104,90.6c-11.4,0-20.6,6.6-20.6,14.7s3,8.7,7.7,11.4c-.5,1.3-1.3,3.1-3.1,5.1-1.1,1.3.2,3.3,1.8,2.7,3.4-1.3,7.3-3,10.9-4.8,1.1.1,2.2.2,3.3.2,11.4,0,20.6-6.6,20.6-14.7s-9.2-14.7-20.6-14.7h0ZM93.8,108.5c-1.7,0-3.2-1.4-3.2-3.2s1.4-3.2,3.2-3.2,3.2,1.4,3.2,3.2-1.4,3.2-3.2,3.2ZM104,108.5c-1.7,0-3.2-1.4-3.2-3.2s1.4-3.2,3.2-3.2,3.2,1.4,3.2,3.2-1.4,3.2-3.2,3.2ZM114.2,108.5c-1.7,0-3.2-1.4-3.2-3.2s1.4-3.2,3.2-3.2,3.2,1.4,3.2,3.2-1.4,3.2-3.2,3.2Z"/>
</svg>