<?xml version="1.0" encoding="UTF-8"?><svg id="Layer_3" xmlns="http://www.w3.org/2000/svg" viewBox="0 0 208.48 186.06"><defs><style>.cls-1{fill:#f49313;}.cls-2{fill:#8298ad;}</style></defs><path class="cls-1" d="M60.92,86.42c5.96,0,10.81-4.85,10.81-10.81,0-1.27-.26-2.48-.67-3.61l13.77-9.77c1.86,1.5,4.18,2.43,6.74,2.43s4.89-.93,6.74-2.43l13.77,9.77c-.41,1.14-.67,2.34-.67,3.61,0,5.96,4.85,10.81,10.81,10.81s10.81-4.85,10.81-10.81c0-1.27-.26-2.48-.67-3.61l13.76-9.77c1.85,1.5,4.18,2.43,6.74,2.43,5.96,0,10.81-4.85,10.81-10.81s-4.85-10.81-10.81-10.81-10.81,4.85-10.81,10.81c0,1.27.26,2.48.67,3.61l-13.76,9.77c-1.85-1.5-4.18-2.43-6.74-2.43s-4.89.93-6.74,2.43l-13.77-9.77c.41-1.13.67-2.34.67-3.61,0-5.96-4.85-10.81-10.81-10.81s-10.81,4.85-10.81,10.81c0,1.27.26,2.48.67,3.61l-13.77,9.77c-1.86-1.5-4.18-2.43-6.74-2.43-5.96,0-10.81,4.85-10.81,10.81s4.85,10.81,10.81,10.81Z"/><path class="cls-2" d="M171.14,135.99h-8.31v-57.36c0-1.62-1.31-2.93-2.93-2.93h-14.07c-1.62,0-2.93,1.31-2.93,2.93v57.36h-10.72v-35.6c0-1.62-1.31-2.93-2.93-2.93h-14.07c-1.62,0-2.93,1.31-2.93,2.93v35.6h-10.73v-57.36c0-1.62-1.31-2.93-2.93-2.93h-14.07c-1.62,0-2.93,1.31-2.93,2.93v57.36h-10.73v-35.6c0-1.62-1.31-2.93-2.93-2.93h-14.07c-1.62,0-2.93,1.31-2.93,2.93v35.6h-10.1V53.1c0-1.94-1.57-3.51-3.51-3.51s-3.51,1.57-3.51,3.51v86.4c0,1.94,1.57,3.51,3.51,3.51h133.79c1.94,0,3.51-1.57,3.51-3.51s-1.57-3.51-3.51-3.51Z"/></svg>