<?xml version="1.0" encoding="UTF-8"?>
<svg id="Layer_2" xmlns="http://www.w3.org/2000/svg" version="1.1" viewBox="0 0 3866 852.9">
  <!-- Generator: Adobe Illustrator 29.4.0, SVG Export Plug-In . SVG Version: 2.1.0 Build 152)  -->
  <defs>
    <style>
      .st0 {
        fill-opacity: 0;
      }

      .st0, .st1, .st2, .st3, .st4, .st5, .st6, .st7, .st8, .st9, .st10, .st11, .st12, .st13, .st14, .st15 {
        fill: #f4f9f9;
      }

      .st16 {
        fill: #204ace;
      }

      .st17 {
        fill: #f9910a;
      }

      .st1 {
        opacity: 0;
      }

      .st1, .st2, .st3, .st4, .st5, .st6, .st7, .st8, .st9, .st10, .st11, .st12, .st13, .st14, .st15 {
        isolation: isolate;
      }

      .st2 {
        opacity: 0;
      }

      .st3 {
        opacity: .1;
      }

      .st4 {
        opacity: .2;
      }

      .st5 {
        opacity: .3;
      }

      .st6 {
        opacity: .4;
      }

      .st7 {
        opacity: .3;
      }

      .st8 {
        opacity: .4;
      }

      .st9 {
        opacity: .4;
      }

      .st10 {
        opacity: .5;
      }

      .st11 {
        opacity: .6;
      }

      .st12 {
        opacity: .6;
      }

      .st13 {
        opacity: .7;
      }

      .st14 {
        opacity: .8;
      }

      .st15 {
        opacity: .9;
      }

      .st18 {
        fill: #f49313;
      }

      .st19 {
        fill: #8298ad;
      }

      .st20 {
        fill: #f64227;
      }
    </style>
  </defs>
  <g id="Layer_3">
    <polygon class="st16" points="99.1 682.3 99.1 682.3 0 852.9 0 852.9 198.2 852.9 198.2 852.9 99.1 682.3"/>
    <polygon class="st16" points="495.6 682.3 495.6 682.3 396.5 852.9 396.5 852.9 594.7 852.9 594.7 852.9 495.6 682.3"/>
    <polygon class="st16" points="297.4 682.3 297.3 682.3 198.2 852.9 198.2 852.9 396.5 852.9 396.5 852.9 297.4 682.3"/>
    <polygon class="st20" points="693.8 682.3 594.7 852.9 594.7 852.9 792.9 852.9 792.9 852.9 693.8 682.3 693.8 682.3"/>
    <polygon class="st20" points="792.9 852.9 892 682.3 693.8 682.3 792.9 852.9"/>
    <polygon class="st20" points="792.9 511.7 693.8 682.3 693.8 682.3 892 682.3 892 682.3 792.9 511.7 792.9 511.7"/>
    <polygon class="st17" points="396.5 170.6 594.7 170.6 594.7 170.6 495.6 0 495.6 0 396.5 170.6 396.5 170.6"/>
    <polygon class="st20" points="594.7 852.9 693.8 682.3 495.6 682.3 594.7 852.9"/>
    <polygon class="st16" points="396.5 852.9 495.6 682.3 297.4 682.3 396.5 852.9"/>
    <polygon class="st16" points="198.2 852.9 297.3 682.3 99.1 682.3 198.2 852.9"/>
    <polygon class="st16" points="198.2 511.7 198.2 511.7 99.1 682.3 99.1 682.3 297.3 682.3 297.3 682.3 198.2 511.7"/>
    <polygon class="st20" points="594.7 511.7 495.6 682.3 495.6 682.3 693.8 682.3 693.8 682.3 594.7 511.7 594.7 511.7"/>
    <polygon class="st20" points="693.8 682.3 792.9 511.7 594.7 511.7 693.8 682.3"/>
    <polygon class="st16" points="396.5 511.7 396.5 511.7 297.3 682.3 297.4 682.3 495.6 682.3 495.6 682.3 396.5 511.7"/>
    <polygon class="st20" points="594.7 511.7 594.7 511.7 792.9 511.7 792.9 511.7 693.8 341.1 693.8 341.1 594.7 511.7"/>
    <polygon class="st17" points="297.4 341.1 495.6 341.1 495.6 341.1 396.5 170.6 396.5 170.6 297.3 341.1 297.4 341.1"/>
    <polygon class="st17" points="594.7 170.6 396.5 170.6 495.6 341.1 594.7 170.6"/>
    <polygon class="st17" points="495.6 341.1 693.8 341.1 693.8 341.1 594.7 170.6 594.7 170.6 495.6 341.1 495.6 341.1"/>
    <polygon class="st16" points="297.3 682.3 396.5 511.7 198.2 511.7 297.3 682.3"/>
    <polygon class="st17" points="495.6 682.3 594.7 511.7 396.5 511.7 495.6 682.3"/>
    <polygon class="st17" points="693.8 341.1 495.6 341.1 594.7 511.7 693.8 341.1"/>
    <polygon class="st16" points="198.2 511.7 396.5 511.7 396.5 511.7 297.4 341.1 297.3 341.1 198.2 511.7 198.2 511.7"/>
    <polygon class="st17" points="396.5 511.7 594.7 511.7 594.7 511.7 495.6 341.1 495.6 341.1 396.5 511.7 396.5 511.7"/>
    <polygon class="st17" points="495.6 341.1 297.4 341.1 396.5 511.7 495.6 341.1"/>
    <polygon class="st20" points="892 682.3 792.9 852.9 792.9 852.9 991.2 852.9 991.2 852.9 892 682.3 892 682.3"/>
    <polygon class="st2" points="99.1 682.3 99.1 682.3 0 852.9 0 852.9 198.2 852.9 198.2 852.9 99.1 682.3"/>
    <polygon class="st0" points="495.6 682.3 495.6 682.3 396.5 852.9 396.5 852.9 594.7 852.9 594.7 852.9 495.6 682.3"/>
    <polygon class="st0" points="297.4 682.3 297.3 682.3 198.2 852.9 198.2 852.9 396.5 852.9 396.5 852.9 297.4 682.3"/>
    <polygon class="st0" points="693.8 682.3 594.7 852.9 594.7 852.9 792.9 852.9 792.9 852.9 693.8 682.3 693.8 682.3"/>
    <polygon class="st13" points="792.9 852.9 892 682.3 693.8 682.3 792.9 852.9"/>
    <polygon class="st2" points="792.9 511.7 693.8 682.3 693.8 682.3 892 682.3 892 682.3 792.9 511.7 792.9 511.7"/>
    <polygon class="st5" points="396.5 170.6 594.7 170.6 594.7 170.6 495.6 0 495.6 0 396.5 170.6 396.5 170.6"/>
    <polygon class="st2" points="594.7 852.9 693.8 682.3 495.6 682.3 594.7 852.9"/>
    <polygon class="st12" points="396.5 852.9 495.6 682.3 297.4 682.3 396.5 852.9"/>
    <polygon class="st0" points="198.2 852.9 297.3 682.3 99.1 682.3 198.2 852.9"/>
    <polygon class="st9" points="198.2 511.7 198.2 511.7 99.1 682.3 99.1 682.3 297.3 682.3 297.3 682.3 198.2 511.7"/>
    <polygon class="st8" points="594.7 511.7 495.6 682.3 495.6 682.3 693.8 682.3 693.8 682.3 594.7 511.7 594.7 511.7"/>
    <polygon class="st11" points="693.8 682.3 792.9 511.7 594.7 511.7 693.8 682.3"/>
    <polygon class="st15" points="396.5 511.7 396.5 511.7 297.3 682.3 297.4 682.3 495.6 682.3 495.6 682.3 396.5 511.7"/>
    <polygon class="st2" points="594.7 511.7 594.7 511.7 792.9 511.7 792.9 511.7 693.8 341.1 693.8 341.1 594.7 511.7"/>
    <polygon class="st6" points="297.4 341.1 495.6 341.1 495.6 341.1 396.5 170.6 396.5 170.6 297.3 341.1 297.4 341.1"/>
    <polygon class="st14" points="594.7 170.6 396.5 170.6 495.6 341.1 594.7 170.6"/>
    <polygon class="st0" points="495.6 341.1 693.8 341.1 693.8 341.1 594.7 170.6 594.7 170.6 495.6 341.1 495.6 341.1"/>
    <polygon class="st7" points="297.3 682.3 396.5 511.7 198.2 511.7 297.3 682.3"/>
    <polygon class="st0" points="495.6 682.3 594.7 511.7 396.5 511.7 495.6 682.3"/>
    <polygon class="st3" points="693.8 341.1 495.6 341.1 594.7 511.7 693.8 341.1"/>
    <polygon class="st1" points="198.2 511.7 396.5 511.7 396.5 511.7 297.4 341.1 297.3 341.1 198.2 511.7 198.2 511.7"/>
    <polygon class="st10" points="396.5 511.7 594.7 511.7 594.7 511.7 495.6 341.1 495.6 341.1 396.5 511.7 396.5 511.7"/>
    <polygon class="st4" points="495.6 341.1 297.4 341.1 396.5 511.7 495.6 341.1"/>
    <polygon class="st11" points="892 682.3 792.9 852.9 792.9 852.9 991.2 852.9 991.2 852.9 892 682.3 892 682.3"/>
    <polygon class="st2" points="99.1 682.3 99.1 682.3 0 852.9 0 852.9 198.2 852.9 198.2 852.9 99.1 682.3"/>
    <polygon class="st0" points="495.6 682.3 495.6 682.3 396.5 852.9 396.5 852.9 594.7 852.9 594.7 852.9 495.6 682.3"/>
    <polygon class="st0" points="297.4 682.3 297.3 682.3 198.2 852.9 198.2 852.9 396.5 852.9 396.5 852.9 297.4 682.3"/>
    <polygon class="st0" points="693.8 682.3 594.7 852.9 594.7 852.9 792.9 852.9 792.9 852.9 693.8 682.3 693.8 682.3"/>
    <polygon class="st13" points="792.9 852.9 892 682.3 693.8 682.3 792.9 852.9"/>
    <polygon class="st2" points="792.9 511.7 693.8 682.3 693.8 682.3 892 682.3 892 682.3 792.9 511.7 792.9 511.7"/>
    <polygon class="st5" points="396.5 170.6 594.7 170.6 594.7 170.6 495.6 0 495.6 0 396.5 170.6 396.5 170.6"/>
    <polygon class="st2" points="594.7 852.9 693.8 682.3 495.6 682.3 594.7 852.9"/>
    <polygon class="st12" points="396.5 852.9 495.6 682.3 297.4 682.3 396.5 852.9"/>
    <polygon class="st0" points="198.2 852.9 297.3 682.3 99.1 682.3 198.2 852.9"/>
    <polygon class="st9" points="198.2 511.7 198.2 511.7 99.1 682.3 99.1 682.3 297.3 682.3 297.3 682.3 198.2 511.7"/>
    <polygon class="st8" points="594.7 511.7 495.6 682.3 495.6 682.3 693.8 682.3 693.8 682.3 594.7 511.7 594.7 511.7"/>
    <polygon class="st11" points="693.8 682.3 792.9 511.7 594.7 511.7 693.8 682.3"/>
    <polygon class="st15" points="396.5 511.7 396.5 511.7 297.3 682.3 297.4 682.3 495.6 682.3 495.6 682.3 396.5 511.7"/>
    <polygon class="st2" points="594.7 511.7 594.7 511.7 792.9 511.7 792.9 511.7 693.8 341.1 693.8 341.1 594.7 511.7"/>
    <polygon class="st6" points="297.4 341.1 495.6 341.1 495.6 341.1 396.5 170.6 396.5 170.6 297.3 341.1 297.4 341.1"/>
    <polygon class="st14" points="594.7 170.6 396.5 170.6 495.6 341.1 594.7 170.6"/>
    <polygon class="st0" points="495.6 341.1 693.8 341.1 693.8 341.1 594.7 170.6 594.7 170.6 495.6 341.1 495.6 341.1"/>
    <polygon class="st7" points="297.3 682.3 396.5 511.7 198.2 511.7 297.3 682.3"/>
    <polygon class="st0" points="495.6 682.3 594.7 511.7 396.5 511.7 495.6 682.3"/>
    <polygon class="st3" points="693.8 341.1 495.6 341.1 594.7 511.7 693.8 341.1"/>
    <polygon class="st1" points="198.2 511.7 396.5 511.7 396.5 511.7 297.4 341.1 297.3 341.1 198.2 511.7 198.2 511.7"/>
    <polygon class="st10" points="396.5 511.7 594.7 511.7 594.7 511.7 495.6 341.1 495.6 341.1 396.5 511.7 396.5 511.7"/>
    <polygon class="st4" points="495.6 341.1 297.4 341.1 396.5 511.7 495.6 341.1"/>
    <polygon class="st11" points="892 682.3 792.9 852.9 792.9 852.9 991.2 852.9 991.2 852.9 892 682.3 892 682.3"/>
    <polygon class="st2" points="99.1 682.3 99.1 682.3 0 852.9 0 852.9 198.2 852.9 198.2 852.9 99.1 682.3"/>
    <polygon class="st0" points="495.6 682.3 495.6 682.3 396.5 852.9 396.5 852.9 594.7 852.9 594.7 852.9 495.6 682.3"/>
    <polygon class="st0" points="297.4 682.3 297.3 682.3 198.2 852.9 198.2 852.9 396.5 852.9 396.5 852.9 297.4 682.3"/>
    <polygon class="st0" points="693.8 682.3 594.7 852.9 594.7 852.9 792.9 852.9 792.9 852.9 693.8 682.3 693.8 682.3"/>
    <polygon class="st13" points="792.9 852.9 892 682.3 693.8 682.3 792.9 852.9"/>
    <polygon class="st2" points="792.9 511.7 693.8 682.3 693.8 682.3 892 682.3 892 682.3 792.9 511.7 792.9 511.7"/>
    <polygon class="st5" points="396.5 170.6 594.7 170.6 594.7 170.6 495.6 0 495.6 0 396.5 170.6 396.5 170.6"/>
    <polygon class="st2" points="594.7 852.9 693.8 682.3 495.6 682.3 594.7 852.9"/>
    <polygon class="st12" points="396.5 852.9 495.6 682.3 297.4 682.3 396.5 852.9"/>
    <polygon class="st0" points="198.2 852.9 297.3 682.3 99.1 682.3 198.2 852.9"/>
    <polygon class="st9" points="198.2 511.7 198.2 511.7 99.1 682.3 99.1 682.3 297.3 682.3 297.3 682.3 198.2 511.7"/>
    <polygon class="st8" points="594.7 511.7 495.6 682.3 495.6 682.3 693.8 682.3 693.8 682.3 594.7 511.7 594.7 511.7"/>
    <polygon class="st11" points="693.8 682.3 792.9 511.7 594.7 511.7 693.8 682.3"/>
    <polygon class="st15" points="396.5 511.7 396.5 511.7 297.3 682.3 297.4 682.3 495.6 682.3 495.6 682.3 396.5 511.7"/>
    <polygon class="st2" points="594.7 511.7 594.7 511.7 792.9 511.7 792.9 511.7 693.8 341.1 693.8 341.1 594.7 511.7"/>
    <polygon class="st6" points="297.4 341.1 495.6 341.1 495.6 341.1 396.5 170.6 396.5 170.6 297.3 341.1 297.4 341.1"/>
    <polygon class="st14" points="594.7 170.6 396.5 170.6 495.6 341.1 594.7 170.6"/>
    <polygon class="st0" points="495.6 341.1 693.8 341.1 693.8 341.1 594.7 170.6 594.7 170.6 495.6 341.1 495.6 341.1"/>
    <polygon class="st7" points="297.3 682.3 396.5 511.7 198.2 511.7 297.3 682.3"/>
    <polygon class="st0" points="495.6 682.3 594.7 511.7 396.5 511.7 495.6 682.3"/>
    <polygon class="st3" points="693.8 341.1 495.6 341.1 594.7 511.7 693.8 341.1"/>
    <polygon class="st1" points="198.2 511.7 396.5 511.7 396.5 511.7 297.4 341.1 297.3 341.1 198.2 511.7 198.2 511.7"/>
    <polygon class="st10" points="396.5 511.7 594.7 511.7 594.7 511.7 495.6 341.1 495.6 341.1 396.5 511.7 396.5 511.7"/>
    <polygon class="st4" points="495.6 341.1 297.4 341.1 396.5 511.7 495.6 341.1"/>
    <polygon class="st11" points="892 682.3 792.9 852.9 792.9 852.9 991.2 852.9 991.2 852.9 892 682.3 892 682.3"/>
    <polygon class="st2" points="99.1 682.3 99.1 682.3 0 852.9 0 852.9 198.2 852.9 198.2 852.9 99.1 682.3"/>
    <polygon class="st0" points="495.6 682.3 495.6 682.3 396.5 852.9 396.5 852.9 594.7 852.9 594.7 852.9 495.6 682.3"/>
    <polygon class="st0" points="297.4 682.3 297.3 682.3 198.2 852.9 198.2 852.9 396.5 852.9 396.5 852.9 297.4 682.3"/>
    <polygon class="st0" points="693.8 682.3 594.7 852.9 594.7 852.9 792.9 852.9 792.9 852.9 693.8 682.3 693.8 682.3"/>
    <polygon class="st13" points="792.9 852.9 892 682.3 693.8 682.3 792.9 852.9"/>
    <polygon class="st2" points="792.9 511.7 693.8 682.3 693.8 682.3 892 682.3 892 682.3 792.9 511.7 792.9 511.7"/>
    <polygon class="st5" points="396.5 170.6 594.7 170.6 594.7 170.6 495.6 0 495.6 0 396.5 170.6 396.5 170.6"/>
    <polygon class="st2" points="594.7 852.9 693.8 682.3 495.6 682.3 594.7 852.9"/>
    <polygon class="st12" points="396.5 852.9 495.6 682.3 297.4 682.3 396.5 852.9"/>
    <polygon class="st0" points="198.2 852.9 297.3 682.3 99.1 682.3 198.2 852.9"/>
    <polygon class="st9" points="198.2 511.7 198.2 511.7 99.1 682.3 99.1 682.3 297.3 682.3 297.3 682.3 198.2 511.7"/>
    <polygon class="st8" points="594.7 511.7 495.6 682.3 495.6 682.3 693.8 682.3 693.8 682.3 594.7 511.7 594.7 511.7"/>
    <polygon class="st11" points="693.8 682.3 792.9 511.7 594.7 511.7 693.8 682.3"/>
    <polygon class="st15" points="396.5 511.7 396.5 511.7 297.3 682.3 297.4 682.3 495.6 682.3 495.6 682.3 396.5 511.7"/>
    <polygon class="st2" points="594.7 511.7 594.7 511.7 792.9 511.7 792.9 511.7 693.8 341.1 693.8 341.1 594.7 511.7"/>
    <polygon class="st6" points="297.4 341.1 495.6 341.1 495.6 341.1 396.5 170.6 396.5 170.6 297.3 341.1 297.4 341.1"/>
    <polygon class="st14" points="594.7 170.6 396.5 170.6 495.6 341.1 594.7 170.6"/>
    <polygon class="st0" points="495.6 341.1 693.8 341.1 693.8 341.1 594.7 170.6 594.7 170.6 495.6 341.1 495.6 341.1"/>
    <polygon class="st7" points="297.3 682.3 396.5 511.7 198.2 511.7 297.3 682.3"/>
    <polygon class="st0" points="495.6 682.3 594.7 511.7 396.5 511.7 495.6 682.3"/>
    <polygon class="st3" points="693.8 341.1 495.6 341.1 594.7 511.7 693.8 341.1"/>
    <polygon class="st1" points="198.2 511.7 396.5 511.7 396.5 511.7 297.4 341.1 297.3 341.1 198.2 511.7 198.2 511.7"/>
    <polygon class="st10" points="396.5 511.7 594.7 511.7 594.7 511.7 495.6 341.1 495.6 341.1 396.5 511.7 396.5 511.7"/>
    <polygon class="st4" points="495.6 341.1 297.4 341.1 396.5 511.7 495.6 341.1"/>
    <polygon class="st11" points="892 682.3 792.9 852.9 792.9 852.9 991.2 852.9 991.2 852.9 892 682.3 892 682.3"/>
    <polygon class="st2" points="99.1 682.3 99.1 682.3 0 852.9 0 852.9 198.2 852.9 198.2 852.9 99.1 682.3"/>
    <polygon class="st0" points="495.6 682.3 495.6 682.3 396.5 852.9 396.5 852.9 594.7 852.9 594.7 852.9 495.6 682.3"/>
    <polygon class="st0" points="297.4 682.3 297.3 682.3 198.2 852.9 198.2 852.9 396.5 852.9 396.5 852.9 297.4 682.3"/>
    <polygon class="st0" points="693.8 682.3 594.7 852.9 594.7 852.9 792.9 852.9 792.9 852.9 693.8 682.3 693.8 682.3"/>
    <polygon class="st13" points="792.9 852.9 892 682.3 693.8 682.3 792.9 852.9"/>
    <polygon class="st2" points="792.9 511.7 693.8 682.3 693.8 682.3 892 682.3 892 682.3 792.9 511.7 792.9 511.7"/>
    <polygon class="st5" points="396.5 170.6 594.7 170.6 594.7 170.6 495.6 0 495.6 0 396.5 170.6 396.5 170.6"/>
    <polygon class="st2" points="594.7 852.9 693.8 682.3 495.6 682.3 594.7 852.9"/>
    <polygon class="st12" points="396.5 852.9 495.6 682.3 297.4 682.3 396.5 852.9"/>
    <polygon class="st0" points="198.2 852.9 297.3 682.3 99.1 682.3 198.2 852.9"/>
    <polygon class="st9" points="198.2 511.7 198.2 511.7 99.1 682.3 99.1 682.3 297.3 682.3 297.3 682.3 198.2 511.7"/>
    <polygon class="st8" points="594.7 511.7 495.6 682.3 495.6 682.3 693.8 682.3 693.8 682.3 594.7 511.7 594.7 511.7"/>
    <polygon class="st11" points="693.8 682.3 792.9 511.7 594.7 511.7 693.8 682.3"/>
    <polygon class="st15" points="396.5 511.7 396.5 511.7 297.3 682.3 297.4 682.3 495.6 682.3 495.6 682.3 396.5 511.7"/>
    <polygon class="st2" points="594.7 511.7 594.7 511.7 792.9 511.7 792.9 511.7 693.8 341.1 693.8 341.1 594.7 511.7"/>
    <polygon class="st6" points="297.4 341.1 495.6 341.1 495.6 341.1 396.5 170.6 396.5 170.6 297.3 341.1 297.4 341.1"/>
    <polygon class="st14" points="594.7 170.6 396.5 170.6 495.6 341.1 594.7 170.6"/>
    <polygon class="st0" points="495.6 341.1 693.8 341.1 693.8 341.1 594.7 170.6 594.7 170.6 495.6 341.1 495.6 341.1"/>
    <polygon class="st7" points="297.3 682.3 396.5 511.7 198.2 511.7 297.3 682.3"/>
    <polygon class="st0" points="495.6 682.3 594.7 511.7 396.5 511.7 495.6 682.3"/>
    <polygon class="st3" points="693.8 341.1 495.6 341.1 594.7 511.7 693.8 341.1"/>
    <polygon class="st1" points="198.2 511.7 396.5 511.7 396.5 511.7 297.4 341.1 297.3 341.1 198.2 511.7 198.2 511.7"/>
    <polygon class="st10" points="396.5 511.7 594.7 511.7 594.7 511.7 495.6 341.1 495.6 341.1 396.5 511.7 396.5 511.7"/>
    <polygon class="st4" points="495.6 341.1 297.4 341.1 396.5 511.7 495.6 341.1"/>
    <polygon class="st11" points="892 682.3 792.9 852.9 792.9 852.9 991.2 852.9 991.2 852.9 892 682.3 892 682.3"/>
    <polygon class="st2" points="99.1 682.3 99.1 682.3 0 852.9 0 852.9 198.2 852.9 198.2 852.9 99.1 682.3"/>
    <polygon class="st0" points="495.6 682.3 495.6 682.3 396.5 852.9 396.5 852.9 594.7 852.9 594.7 852.9 495.6 682.3"/>
    <polygon class="st0" points="297.4 682.3 297.3 682.3 198.2 852.9 198.2 852.9 396.5 852.9 396.5 852.9 297.4 682.3"/>
    <polygon class="st0" points="693.8 682.3 594.7 852.9 594.7 852.9 792.9 852.9 792.9 852.9 693.8 682.3 693.8 682.3"/>
    <polygon class="st13" points="792.9 852.9 892 682.3 693.8 682.3 792.9 852.9"/>
    <polygon class="st2" points="792.9 511.7 693.8 682.3 693.8 682.3 892 682.3 892 682.3 792.9 511.7 792.9 511.7"/>
    <polygon class="st5" points="396.5 170.6 594.7 170.6 594.7 170.6 495.6 0 495.6 0 396.5 170.6 396.5 170.6"/>
    <polygon class="st2" points="594.7 852.9 693.8 682.3 495.6 682.3 594.7 852.9"/>
    <polygon class="st12" points="396.5 852.9 495.6 682.3 297.4 682.3 396.5 852.9"/>
    <polygon class="st0" points="198.2 852.9 297.3 682.3 99.1 682.3 198.2 852.9"/>
    <polygon class="st9" points="198.2 511.7 198.2 511.7 99.1 682.3 99.1 682.3 297.3 682.3 297.3 682.3 198.2 511.7"/>
    <polygon class="st8" points="594.7 511.7 495.6 682.3 495.6 682.3 693.8 682.3 693.8 682.3 594.7 511.7 594.7 511.7"/>
    <polygon class="st11" points="693.8 682.3 792.9 511.7 594.7 511.7 693.8 682.3"/>
    <polygon class="st15" points="396.5 511.7 396.5 511.7 297.3 682.3 297.4 682.3 495.6 682.3 495.6 682.3 396.5 511.7"/>
    <polygon class="st2" points="594.7 511.7 594.7 511.7 792.9 511.7 792.9 511.7 693.8 341.1 693.8 341.1 594.7 511.7"/>
    <polygon class="st6" points="297.4 341.1 495.6 341.1 495.6 341.1 396.5 170.6 396.5 170.6 297.3 341.1 297.4 341.1"/>
    <polygon class="st14" points="594.7 170.6 396.5 170.6 495.6 341.1 594.7 170.6"/>
    <polygon class="st0" points="495.6 341.1 693.8 341.1 693.8 341.1 594.7 170.6 594.7 170.6 495.6 341.1 495.6 341.1"/>
    <polygon class="st7" points="297.3 682.3 396.5 511.7 198.2 511.7 297.3 682.3"/>
    <polygon class="st0" points="495.6 682.3 594.7 511.7 396.5 511.7 495.6 682.3"/>
    <polygon class="st3" points="693.8 341.1 495.6 341.1 594.7 511.7 693.8 341.1"/>
    <polygon class="st1" points="198.2 511.7 396.5 511.7 396.5 511.7 297.4 341.1 297.3 341.1 198.2 511.7 198.2 511.7"/>
    <polygon class="st10" points="396.5 511.7 594.7 511.7 594.7 511.7 495.6 341.1 495.6 341.1 396.5 511.7 396.5 511.7"/>
    <polygon class="st4" points="495.6 341.1 297.4 341.1 396.5 511.7 495.6 341.1"/>
    <polygon class="st11" points="892 682.3 792.9 852.9 792.9 852.9 991.2 852.9 991.2 852.9 892 682.3 892 682.3"/>
    <path class="st19" d="M3758.2,179h-17.1v-12.1h48.9v12.1h-17.4v51.5h-14.4v-51.5h0Z"/>
    <path class="st19" d="M3851,206.1c-.3-7.6-.6-16.9-.6-26.1h-.3c-2,8.1-4.6,17.2-7.1,24.6l-7.7,24.8h-11.2l-6.8-24.6c-2.1-7.4-4.2-16.5-5.8-24.8h-.2c-.4,8.6-.7,18.4-1.1,26.3l-1.1,24.1h-13.3l4.1-63.6h19.1l6.2,21.2c2,7.4,4,15.3,5.4,22.7h.3c1.8-7.4,4-15.8,6-22.8l6.8-21.1h18.8l3.5,63.6h-14.1l-.9-24.3h0Z"/>
    <path class="st19" d="M1202.3,344.2v227.7h-61.6v-285.9h57.9l3.7,58.1h0ZM1192.3,418.8h-20.9c-.3-19.9,1.4-38.2,5.4-55,4-16.7,9.9-31.4,18-43.9,8-12.5,18.1-22.1,30.4-28.9s26.5-10.2,42.7-10.2,20.4,1.9,29.5,5.7c9.1,3.8,17,9.7,23.8,17.8,6.8,8.1,12,18.5,15.6,31.2,3.6,12.7,5.4,28,5.4,46v190.5h-61.3v-184.7c0-13.7-1.5-24.5-4.6-32.2s-7.5-13.3-13.3-16.8c-5.8-3.4-12.9-5.1-21.1-5.1s-16.7,2.2-23,6.7c-6.3,4.5-11.4,10.7-15.3,18.5-3.9,7.8-6.7,16.9-8.6,27.2s-2.7,21.4-2.5,33.2h0ZM1338.4,402.4l-28.8,6.6c-.3-17.3,1.4-33.7,5.3-49.3s9.7-29.2,17.6-41c7.8-11.7,17.7-21,29.6-27.7s25.6-10.2,41.1-10.2,23.6,1.9,33.3,5.8c9.7,3.9,18,10,24.8,18.5,6.9,8.5,12.1,19.5,15.6,33,3.5,13.6,5.3,29.9,5.3,49.1v184.7h-61.6v-184.9c0-14.3-1.5-25.3-4.6-33.2-3.1-7.8-7.5-13.2-13.2-16.2-5.7-3-12.7-4.5-21-4.5s-13.2,1.8-18.6,5.4c-5.4,3.6-9.9,8.6-13.6,15.1s-6.5,13.7-8.3,21.9-2.8,17.1-2.8,26.8h0Z"/>
    <path class="st19" d="M1634.9,577.3c-18.5,0-35-2.8-49.4-8.3-14.4-5.5-26.7-13.8-36.7-24.7-10-10.9-17.7-24.5-23-40.7-5.3-16.2-7.9-35-7.9-56.3v-27.5c0-24,2.8-44.7,8.3-62.4,5.6-17.6,13.2-32,23.1-43.3,9.9-11.3,21.5-19.6,35-25.1s28-8.2,43.7-8.2,33.8,3,47,8.9c13.2,5.9,24.1,14.6,32.6,26.1,8.5,11.5,14.9,25.8,19,42.8s6.2,36.7,6.2,59v31.2h-185.5v-46.8h124.7v-6.6c-.3-13-1.9-24.3-4.8-33.7-2.8-9.4-7.3-16.6-13.5-21.7-6.2-5-14.8-7.5-25.9-7.5s-15,1.5-21.1,4.5c-6.2,3-11.2,7.8-15.2,14.5s-7,15.6-9.1,26.8c-2.1,11.2-3.2,25-3.2,41.3v27.5c0,14.3,1.3,26.3,3.8,36.2,2.6,9.9,6.4,17.9,11.5,24.2,5.1,6.3,11.3,10.8,18.6,13.7,7.3,2.9,15.8,4.4,25.5,4.4,14.1,0,26.3-2.7,36.7-8.1,10.4-5.4,19.4-12.4,26.9-21l27.5,37.8c-5.3,6.9-12.2,13.6-20.7,20.2-8.5,6.6-18.9,12-31.2,16.2s-26.6,6.3-43.2,6.3h0Z"/>
    <path class="st19" d="M1878.6,286.1v47.5h-140.3v-47.5h140.3ZM1776.6,216.1h61.6v276.1c0,8.6,1,15.3,2.9,19.9,1.9,4.7,4.6,7.8,8.1,9.4,3.4,1.6,7.5,2.4,12.3,2.4s7-.3,10.4-.8c3.4-.5,5.9-1.1,7.5-1.6l-.3,49.4c-4.6,1.8-9.8,3.3-15.6,4.5-5.8,1.2-13,1.8-21.7,1.8-12.7,0-23.9-2.6-33.6-7.8-9.7-5.2-17.4-13.7-23.1-25.6s-8.6-27.7-8.6-47.4V216.1h0Z"/>
    <path class="st18" d="M2044.8,240.2l-93,331.8h-67.1l122.1-384.7h42l-4,52.8h0ZM2120.6,429.1v53.9h-179.1v-53.9h179.1ZM2119.1,572l-93.3-331.8-4.2-52.8h42.3l122.6,384.7h-67.4,0Z"/>
    <path class="st18" d="M2278.2,187.3v384.7h-64.2V187.3h64.2Z"/>
    <path class="st19" d="M2389.5,347.2v224.8h-61.8v-285.9h57.9l4,61h0ZM2378.1,418.8h-19.6c-.2-20.4,2-39.1,6.6-56.1s11.1-31.6,19.6-43.7,18.6-21.5,30.5-28.1,25.1-9.9,39.8-9.9,21.8,1.9,31.2,5.7c9.3,3.8,17.4,9.9,24,18.4s11.8,19.5,15.5,33c3.6,13.6,5.4,30.1,5.4,49.7v184.4h-61.6v-184.7c0-13.6-1.4-24.3-4.2-32.2-2.8-7.9-7.1-13.6-12.7-16.9-5.6-3.3-12.9-5-21.7-5s-14.9,2.2-21.5,6.7c-6.6,4.5-12.2,10.7-16.9,18.5-4.7,7.8-8.3,16.9-10.8,27.2s-3.7,21.4-3.6,33.2h0Z"/>
    <path class="st19" d="M2706.1,496.7c0-6-1.7-11.3-5.1-16-3.4-4.7-8.9-9.2-16.5-13.7s-17.7-9.5-30.4-14.9c-13-5.5-24.7-10.9-35-16.4s-19-11.5-26-18.1c-7.1-6.6-12.4-14.2-16-22.9-3.6-8.6-5.4-18.6-5.4-29.9s2.2-22.8,6.6-32.9c4.4-10.1,10.7-19,18.9-26.5,8.2-7.6,18.1-13.6,29.9-18,11.7-4.4,24.8-6.6,39.2-6.6,20.6,0,38.3,3.8,53,11.4,14.7,7.6,26,18,33.8,31.2,7.8,13.2,11.8,28.4,11.8,45.7h-61.6c0-7-1.3-13.6-4-19.5s-6.7-10.8-12.1-14.4-12.4-5.4-20.9-5.4-14.2,1.5-19.4,4.4c-5.2,2.9-9.1,6.7-11.6,11.5-2.6,4.8-3.8,10.2-3.8,16.4s.8,8.3,2.4,11.6c1.6,3.4,4.2,6.5,7.9,9.5,3.7,3,8.7,6.1,14.9,9.4,6.2,3.3,14.2,6.9,23.9,11,19.2,7.2,35.2,14.8,47.9,22.9,12.8,8,22.3,17.3,28.5,27.9s9.4,23.7,9.4,39.4-2.3,24.1-6.9,34.3c-4.6,10.2-11.3,19-20.1,26.4-8.8,7.4-19.3,13.1-31.6,17-12.2,4-25.9,5.9-40.8,5.9-22.4,0-41.3-4.5-56.7-13.3s-27.1-20.4-35-34.5c-7.9-14.1-11.9-29-11.9-44.6h59.4c.7,11.3,3.2,20,7.4,26.3s9.7,10.7,16.4,13.2c6.7,2.5,13.6,3.8,20.9,3.8s15.8-1.2,21.4-3.7c5.6-2.5,9.9-6.1,12.8-11,2.9-4.8,4.4-10.4,4.4-16.8h0Z"/>
    <path class="st19" d="M2866.3,286.1v285.8h-61.8v-285.9h61.8Z"/>
    <path class="st19" d="M2903.6,440.7v-22.5c0-23.4,2.2-43.7,6.6-60.9,4.4-17.2,10.7-31.5,19-42.9,8.3-11.4,18.4-19.9,30.2-25.4s25.3-8.2,40.3-8.2,28.3,3.2,38.8,9.5c10.6,6.3,19.3,15.4,26.2,27.2,6.9,11.8,12.2,25.9,16.1,42.3s6.7,34.6,8.4,54.7v31.2c-1.8,19.4-4.8,37.1-9,53.2-4.2,16.1-9.9,30-17.2,41.7-7.2,11.7-16,20.7-26.4,27.1s-22.9,9.5-37.5,9.5-27.8-2.9-39.6-8.7c-11.8-5.8-21.9-14.4-30.2-25.9-8.4-11.4-14.8-25.7-19.1-42.7-4.4-17-6.6-36.8-6.6-59.3h0ZM3065,286.1h56v286.9c0,25.7-4.7,46.8-14.1,63.3-9.4,16.5-22.5,28.7-39.2,36.6-16.7,7.9-36.1,11.9-58.1,11.9s-17.7-1.3-28.7-3.8-21.9-6.4-32.6-11.6c-10.8-5.2-19.5-11.6-26.2-19.2l22.2-42.8c8.3,8.6,18.1,15.2,29.3,19.8,11.3,4.6,22.1,6.9,32.5,6.9s20.9-1.9,28.8-5.7c7.9-3.8,14-10,18.1-18.8,4.1-8.7,6.2-20.5,6.2-35.3v-223.2l5.8-65h0ZM2965.4,418.2v22.5c0,14.6,1,27.2,2.9,37.8,1.9,10.6,4.9,19.2,9,26s9.4,11.8,16,15.1c6.6,3.3,14.4,4.9,23.4,4.9s21.3-2.8,28.5-8.5c7.2-5.6,12.8-13.2,16.6-22.9,3.9-9.6,6.7-20.4,8.4-32.4v-61.3c-.9-9.3-2.6-18-5.3-26-2.6-8-6.1-15.1-10.3-21.1-4.2-6.1-9.5-10.8-15.7-14.1s-13.5-5-21.8-5-16.8,1.7-23.4,5.1c-6.6,3.4-12,8.6-16.1,15.5-4.1,6.9-7.2,15.7-9.2,26.4-2,10.7-3,23.4-3,38h0Z"/>
    <path class="st19" d="M3224.4,166.2v405.8h-61.3V166.2h61.3ZM3213.6,418.8h-19.6c-.2-19.9,1.9-38.2,6.3-55,4.4-16.7,10.7-31.4,19-43.9,8.3-12.5,18.3-22.1,30-28.9s24.7-10.2,39-10.2,22.4,2,32,5.9c9.5,4,17.8,10.2,24.8,18.6,7,8.5,12.4,19.5,16,33.3,3.6,13.7,5.4,30.4,5.4,49.9v183.3h-61.6v-183.9c0-13.6-1.4-24.4-4.2-32.4-2.8-8-7.1-13.8-12.8-17.3s-12.8-5.3-21.3-5.3-16,2.2-22.6,6.7c-6.6,4.5-12.2,10.7-16.8,18.5-4.6,7.8-8,16.9-10.3,27.2s-3.4,21.4-3.4,33.2h0Z"/>
    <path class="st19" d="M3524.3,286.1v47.5h-140.3v-47.5h140.3ZM3422.4,216.1h61.6v276.1c0,8.6,1,15.3,2.9,19.9s4.6,7.8,8.1,9.4,7.5,2.4,12.3,2.4,7-.3,10.4-.8c3.4-.5,5.9-1.1,7.5-1.6l-.3,49.4c-4.6,1.8-9.8,3.3-15.6,4.5-5.8,1.2-13,1.8-21.7,1.8-12.7,0-23.9-2.6-33.6-7.8-9.7-5.2-17.4-13.7-23.1-25.6-5.7-11.9-8.6-27.7-8.6-47.4V216.1h0Z"/>
    <path class="st19" d="M3685.3,496.7c0-6-1.7-11.3-5.1-16-3.4-4.7-8.9-9.2-16.5-13.7s-17.7-9.5-30.4-14.9c-13-5.5-24.7-10.9-35-16.4s-19-11.5-26-18.1c-7.1-6.6-12.4-14.2-16-22.9-3.6-8.6-5.4-18.6-5.4-29.9s2.2-22.8,6.6-32.9c4.4-10.1,10.7-19,18.9-26.5,8.2-7.6,18.1-13.6,29.9-18,11.7-4.4,24.8-6.6,39.2-6.6,20.6,0,38.3,3.8,53,11.4,14.7,7.6,26,18,33.8,31.2,7.8,13.2,11.8,28.4,11.8,45.7h-61.6c0-7-1.3-13.6-4-19.5s-6.7-10.8-12.1-14.4-12.4-5.4-20.9-5.4-14.2,1.5-19.4,4.4c-5.2,2.9-9.1,6.7-11.6,11.5-2.6,4.8-3.8,10.2-3.8,16.4s.8,8.3,2.4,11.6c1.6,3.4,4.2,6.5,7.9,9.5,3.7,3,8.7,6.1,14.9,9.4,6.2,3.3,14.2,6.9,23.9,11,19.2,7.2,35.2,14.8,47.9,22.9,12.8,8,22.3,17.3,28.5,27.9s9.4,23.7,9.4,39.4-2.3,24.1-6.9,34.3c-4.6,10.2-11.3,19-20.1,26.4-8.8,7.4-19.3,13.1-31.6,17-12.2,4-25.9,5.9-40.8,5.9-22.4,0-41.3-4.5-56.7-13.3s-27.1-20.4-35-34.5c-7.9-14.1-11.9-29-11.9-44.6h59.4c.7,11.3,3.2,20,7.4,26.3s9.7,10.7,16.4,13.2c6.7,2.5,13.6,3.8,20.9,3.8s15.8-1.2,21.4-3.7c5.6-2.5,9.9-6.1,12.8-11,2.9-4.8,4.4-10.4,4.4-16.8h0Z"/>
    <path class="st18" d="M2801.5,211.4c0-10,3-18.3,9-24.8,6-6.5,14.4-9.8,25.4-9.8s19.1,3.3,25,9.8c5.9,6.5,8.9,14.8,8.9,24.8s-2.9,17.7-8.9,24.2c-5.9,6.4-14.2,9.6-25,9.6s-19.4-3.2-25.4-9.6c-6-6.4-9-14.5-9-24.2Z"/>
  </g>
</svg>