<?xml version="1.0" encoding="UTF-8"?><svg id="Layer_3" xmlns="http://www.w3.org/2000/svg" viewBox="0 0 208.48 186.06"><defs><style>.cls-1{fill:none;stroke:#8298ad;stroke-linecap:round;stroke-linejoin:round;stroke-width:6px;}.cls-2{fill:#f49313;}.cls-3{fill:#8298ad;}</style></defs><polygon class="cls-2" points="70.41 81.53 49.41 81.53 49.41 81.53 59.91 99.61 59.91 99.61 70.41 81.53 70.41 81.53"/><path class="cls-3" d="M49.41,139.7v-27c0-4.14,3.36-7.5,7.5-7.5h6c4.14,0,7.5,3.36,7.5,7.5v27"/><polygon class="cls-2" points="101.41 51.53 80.41 51.53 80.41 51.53 90.91 69.61 90.91 69.61 101.41 51.53 101.41 51.53"/><path class="cls-3" d="M81.41,139.7v-57c0-4.14,3.36-7.5,7.5-7.5h6c4.14,0,7.5,3.36,7.5,7.5v57"/><polygon class="cls-2" points="132.41 81.53 111.41 81.53 111.41 81.53 121.91 99.61 121.91 99.61 132.41 81.53 132.41 81.53"/><path class="cls-3" d="M111.41,139.7v-27c0-4.14,3.36-7.5,7.5-7.5h6c4.14,0,7.5,3.36,7.5,7.5v27"/><polygon class="cls-2" points="163.41 51.53 142.41 51.53 142.41 51.53 152.91 69.61 152.91 69.61 163.41 51.53 163.41 51.53"/><path class="cls-3" d="M142.41,139.7v-57c0-4.14,3.36-7.5,7.5-7.5h6c4.14,0,7.5,3.36,7.5,7.5l1,57"/><line class="cls-1" x1="36.85" y1="49.22" x2="36.85" y2="138.47"/><line class="cls-1" x1="171.48" y1="138.85" x2="37.23" y2="138.85"/></svg>