<?xml version="1.0" encoding="UTF-8"?>
<svg id="Layer_1" xmlns="http://www.w3.org/2000/svg" version="1.1" viewBox="0 0 208 186">
  <!-- Generator: Adobe Illustrator 29.4.0, SVG Export Plug-In . SVG Version: 2.1.0 Build 152)  -->
  <defs>
    <style>
      .st0 {
        fill: #f49313;
      }

      .st1 {
        fill: #8298ad;
      }
    </style>
  </defs>
  <polygon class="st0" points="94.6 99.7 113.2 99.7 113.2 99.7 103.9 83.7 103.9 83.7 94.6 99.7 94.6 99.7"/>
  <polygon class="st0" points="85.3 115.7 103.9 115.7 103.9 115.7 94.6 99.7 94.6 99.7 85.3 115.7 85.3 115.7"/>
  <polygon class="st0" points="103.9 115.7 122.6 115.7 122.6 115.7 113.2 99.7 113.2 99.7 103.9 115.7 103.9 115.7"/>
  <path class="st1" d="M112,58c-2.1,1.4-4.7,2.3-7.5,2.3s-4.9-.7-6.9-2c-5.3,2.6-9.3,7.7-9.3,13.5v.7h32.5v-2.4c0-5.3-3.9-9.9-8.8-12.2h0Z"/>
  <circle class="st1" cx="104.5" cy="47.1" r="9.1"/>
  <path class="st1" d="M69.3,129.5c-2.2,1.5-5,2.4-7.9,2.4s-5.2-.8-7.3-2.1c-5.6,2.8-9.9,8.1-9.9,14.3v.8h34.4v-2.5c0-5.6-4.1-10.5-9.3-12.9h0Z"/>
  <circle class="st1" cx="61.4" cy="117.9" r="9.6"/>
  <path class="st1" d="M154.5,129.5c-2.2,1.5-5,2.4-7.9,2.4s-5.2-.8-7.3-2.1c-5.6,2.8-9.9,8.1-9.9,14.3v.8h34.4v-2.5c0-5.6-4.1-10.5-9.3-12.9h0Z"/>
  <circle class="st1" cx="146.6" cy="117.9" r="9.6"/>
  <path class="st0" d="M62.3,104.4c-.1-1.4-.2-2.7-.2-4.1,0-16.5,9.6-30.8,23.4-37.6,2.2-4,5.4-7.2,9.3-9.2-22,4.3-38.6,23.6-38.6,46.9s0,3.2.2,4.8c1.4-.5,2.9-.7,4.5-.7s.9,0,1.3,0h0Z"/>
  <path class="st0" d="M124.3,63.6c12.9,7.1,21.6,20.9,21.6,36.7s0,2.7-.2,4.1c.3,0,.7,0,1,0,1.7,0,3.3.3,4.8.9.2-1.6.2-3.2.2-4.9,0-22.5-15.5-41.3-36.5-46.4,3.8,2.2,6.9,5.6,9,9.7h0Z"/>
  <path class="st0" d="M104,142.2c-7.5,0-14.5-2-20.5-5.4,1,2.3,1.7,4.9,2,7.5,5.7,2.4,12,3.7,18.6,3.7s13.1-1.4,18.9-3.9c.3-2.7,1-5.2,2.1-7.6-6.2,3.6-13.3,5.6-21,5.6h0Z"/>
</svg>