<?xml version="1.0" encoding="UTF-8"?><svg id="Layer_2" xmlns="http://www.w3.org/2000/svg" viewBox="0 0 208.48 186.06"><defs><style>.cls-1{fill:none;stroke:#f49313;stroke-linecap:round;stroke-linejoin:round;stroke-width:10px;}.cls-2{fill:#f49313;}.cls-3{fill:#8298ad;}</style></defs><path class="cls-3" d="M49.71,96.99c0-28.44,22.47-51.5,50.2-51.5,24.3,0,44.56,17.71,49.2,41.23h3.23c-3.13-27.66-26.59-49.15-55.09-49.15-30.63,0-55.46,24.83-55.46,55.46s24.83,55.46,55.46,55.46c.5,0,.99-.02,1.48-.04-27.17-.65-49.01-23.43-49.01-51.46Z"/><polygon class="cls-3" points="161.46 84.55 140.46 84.55 140.46 84.55 150.96 102.62 150.96 102.62 161.46 84.55 161.46 84.55"/><polygon class="cls-2" points="140 122.68 151.89 122.68 151.89 122.68 145.95 112.45 145.95 112.45 140 122.68 140 122.68"/><polygon class="cls-2" points="128.56 135.95 140.45 135.95 140.45 135.95 134.51 125.72 134.51 125.72 128.56 135.95 128.56 135.95"/><polygon class="cls-2" points="113.12 144.48 125.01 144.48 125.01 144.48 119.06 134.25 119.06 134.25 113.12 144.48 113.12 144.48"/><line class="cls-1" x1="97.88" y1="70.16" x2="97.88" y2="94.87"/><line class="cls-1" x1="115.76" y1="104.7" x2="97.92" y2="94.86"/></svg>