<?xml version="1.0" encoding="UTF-8"?><svg id="Layer_2" xmlns="http://www.w3.org/2000/svg" viewBox="0 0 2783 2394.78"><defs><style>.cls-1{opacity:0;}.cls-1,.cls-2,.cls-3,.cls-4,.cls-5,.cls-6,.cls-7,.cls-8,.cls-9,.cls-10,.cls-11,.cls-12,.cls-13,.cls-14,.cls-15,.cls-16{fill:#f4f9f9;}.cls-17{fill:#204ace;}.cls-18{fill:#f9910a;}.cls-2{opacity:.07;}.cls-3{opacity:.03;}.cls-4{opacity:.31;}.cls-5{opacity:.11;}.cls-6{opacity:.16;}.cls-7{opacity:.7;}.cls-8{opacity:.76;}.cls-9{opacity:.35;}.cls-10{opacity:.36;}.cls-11{opacity:.61;}.cls-12{opacity:.62;}.cls-13{opacity:.41;}.cls-14{opacity:.38;}.cls-15{opacity:.52;}.cls-16{opacity:.88;}.cls-19{fill:#f64227;}</style></defs><g id="Layer_4"><polygon class="cls-17" points="278.3 1915.83 278.3 1915.83 0 2394.78 0 2394.78 556.6 2394.78 556.6 2394.78 278.3 1915.83"/><polygon class="cls-17" points="1391.5 1915.83 1391.5 1915.83 1113.2 2394.78 1113.2 2394.78 1669.8 2394.78 1669.8 2394.78 1391.5 1915.83"/><polygon class="cls-17" points="834.9 1915.83 834.9 1915.83 556.6 2394.78 556.6 2394.78 1113.2 2394.78 1113.2 2394.78 834.9 1915.83"/><polygon class="cls-19" points="1948.1 1915.83 1669.8 2394.78 1669.8 2394.78 2226.4 2394.78 2226.4 2394.78 1948.1 1915.83 1948.1 1915.83"/><polygon class="cls-19" points="2226.4 2394.78 2504.7 1915.83 1948.1 1915.83 2226.4 2394.78"/><polygon class="cls-19" points="2226.4 1436.87 1948.1 1915.82 1948.1 1915.83 2504.7 1915.83 2504.7 1915.82 2226.4 1436.87 2226.4 1436.87"/><polygon class="cls-18" points="1113.2 478.96 1669.8 478.96 1669.8 478.95 1391.5 0 1391.5 0 1113.2 478.95 1113.2 478.96"/><polygon class="cls-19" points="1669.8 2394.78 1948.1 1915.83 1391.5 1915.83 1669.8 2394.78"/><polygon class="cls-17" points="1113.2 2394.78 1391.5 1915.83 834.9 1915.83 1113.2 2394.78"/><polygon class="cls-17" points="556.6 2394.78 834.9 1915.83 278.3 1915.83 556.6 2394.78"/><polygon class="cls-17" points="556.6 1436.87 556.6 1436.87 278.3 1915.82 278.3 1915.83 834.9 1915.83 834.9 1915.82 556.6 1436.87"/><polygon class="cls-19" points="1669.8 1436.87 1391.5 1915.82 1391.5 1915.83 1948.1 1915.83 1948.1 1915.82 1669.8 1436.87 1669.8 1436.87"/><polygon class="cls-19" points="1948.1 1915.82 2226.4 1436.87 1669.8 1436.87 1948.1 1915.82"/><polygon class="cls-17" points="1113.2 1436.87 1113.2 1436.87 834.9 1915.82 834.9 1915.83 1391.5 1915.83 1391.5 1915.82 1113.2 1436.87"/><polygon class="cls-19" points="1669.8 1436.87 1669.8 1436.87 2226.4 1436.87 2226.4 1436.87 1948.1 957.91 1948.1 957.91 1669.8 1436.87"/><polygon class="cls-18" points="834.9 957.91 1391.5 957.91 1391.5 957.91 1113.2 478.96 1113.2 478.96 834.9 957.91 834.9 957.91"/><polygon class="cls-18" points="1669.8 478.96 1113.2 478.96 1391.5 957.91 1669.8 478.96"/><polygon class="cls-18" points="1391.5 957.91 1948.1 957.91 1948.1 957.91 1669.8 478.96 1669.8 478.96 1391.5 957.91 1391.5 957.91"/><polygon class="cls-17" points="834.9 1915.82 1113.2 1436.87 556.6 1436.87 834.9 1915.82"/><polygon class="cls-18" points="1391.5 1915.82 1669.8 1436.87 1113.2 1436.87 1391.5 1915.82"/><polygon class="cls-18" points="1948.1 957.91 1391.5 957.91 1669.8 1436.87 1948.1 957.91"/><polygon class="cls-17" points="556.6 1436.87 1113.2 1436.87 1113.2 1436.87 834.9 957.91 834.9 957.91 556.6 1436.87 556.6 1436.87"/><polygon class="cls-18" points="1113.2 1436.87 1669.8 1436.87 1669.8 1436.87 1391.5 957.91 1391.5 957.91 1113.2 1436.87 1113.2 1436.87"/><polygon class="cls-18" points="1391.5 957.91 834.9 957.91 1113.2 1436.87 1391.5 957.91"/><polygon class="cls-19" points="2504.7 1915.83 2226.4 2394.78 2226.4 2394.78 2783 2394.78 2783 2394.78 2504.7 1915.83 2504.7 1915.83"/><polygon class="cls-2" points="278.3 1915.83 278.3 1915.83 0 2394.78 0 2394.78 556.6 2394.78 556.6 2394.78 278.3 1915.83"/><polygon class="cls-1" points="1391.5 1915.83 1391.5 1915.83 1113.2 2394.78 1113.2 2394.78 1669.8 2394.78 1669.8 2394.78 1391.5 1915.83"/><polygon class="cls-1" points="834.9 1915.83 834.9 1915.83 556.6 2394.78 556.6 2394.78 1113.2 2394.78 1113.2 2394.78 834.9 1915.83"/><polygon class="cls-1" points="1948.1 1915.83 1669.8 2394.78 1669.8 2394.78 2226.4 2394.78 2226.4 2394.78 1948.1 1915.83 1948.1 1915.83"/><polygon class="cls-7" points="2226.4 2394.78 2504.7 1915.83 1948.1 1915.83 2226.4 2394.78"/><polygon class="cls-2" points="2226.4 1436.87 1948.1 1915.82 1948.1 1915.83 2504.7 1915.83 2504.7 1915.82 2226.4 1436.87 2226.4 1436.87"/><polygon class="cls-4" points="1113.2 478.96 1669.8 478.96 1669.8 478.95 1391.5 0 1391.5 0 1113.2 478.95 1113.2 478.96"/><polygon class="cls-2" points="1669.8 2394.78 1948.1 1915.83 1391.5 1915.83 1669.8 2394.78"/><polygon class="cls-11" points="1113.2 2394.78 1391.5 1915.83 834.9 1915.83 1113.2 2394.78"/><polygon class="cls-1" points="556.6 2394.78 834.9 1915.83 278.3 1915.83 556.6 2394.78"/><polygon class="cls-13" points="556.6 1436.87 556.6 1436.87 278.3 1915.82 278.3 1915.83 834.9 1915.83 834.9 1915.82 556.6 1436.87"/><polygon class="cls-14" points="1669.8 1436.87 1391.5 1915.82 1391.5 1915.83 1948.1 1915.83 1948.1 1915.82 1669.8 1436.87 1669.8 1436.87"/><polygon class="cls-12" points="1948.1 1915.82 2226.4 1436.87 1669.8 1436.87 1948.1 1915.82"/><polygon class="cls-16" points="1113.2 1436.87 1113.2 1436.87 834.9 1915.82 834.9 1915.83 1391.5 1915.83 1391.5 1915.82 1113.2 1436.87"/><polygon class="cls-2" points="1669.8 1436.87 1669.8 1436.87 2226.4 1436.87 2226.4 1436.87 1948.1 957.91 1948.1 957.91 1669.8 1436.87"/><polygon class="cls-10" points="834.9 957.91 1391.5 957.91 1391.5 957.91 1113.2 478.96 1113.2 478.96 834.9 957.91 834.9 957.91"/><polygon class="cls-8" points="1669.8 478.96 1113.2 478.96 1391.5 957.91 1669.8 478.96"/><polygon class="cls-1" points="1391.5 957.91 1948.1 957.91 1948.1 957.91 1669.8 478.96 1669.8 478.96 1391.5 957.91 1391.5 957.91"/><polygon class="cls-9" points="834.9 1915.82 1113.2 1436.87 556.6 1436.87 834.9 1915.82"/><polygon class="cls-1" points="1391.5 1915.82 1669.8 1436.87 1113.2 1436.87 1391.5 1915.82"/><polygon class="cls-5" points="1948.1 957.91 1391.5 957.91 1669.8 1436.87 1948.1 957.91"/><polygon class="cls-3" points="556.6 1436.87 1113.2 1436.87 1113.2 1436.87 834.9 957.91 834.9 957.91 556.6 1436.87 556.6 1436.87"/><polygon class="cls-15" points="1113.2 1436.87 1669.8 1436.87 1669.8 1436.87 1391.5 957.91 1391.5 957.91 1113.2 1436.87 1113.2 1436.87"/><polygon class="cls-6" points="1391.5 957.91 834.9 957.91 1113.2 1436.87 1391.5 957.91"/><polygon class="cls-12" points="2504.7 1915.83 2226.4 2394.78 2226.4 2394.78 2783 2394.78 2783 2394.78 2504.7 1915.83 2504.7 1915.83"/><polygon class="cls-2" points="278.3 1915.83 278.3 1915.83 0 2394.78 0 2394.78 556.6 2394.78 556.6 2394.78 278.3 1915.83"/><polygon class="cls-1" points="1391.5 1915.83 1391.5 1915.83 1113.2 2394.78 1113.2 2394.78 1669.8 2394.78 1669.8 2394.78 1391.5 1915.83"/><polygon class="cls-1" points="834.9 1915.83 834.9 1915.83 556.6 2394.78 556.6 2394.78 1113.2 2394.78 1113.2 2394.78 834.9 1915.83"/><polygon class="cls-1" points="1948.1 1915.83 1669.8 2394.78 1669.8 2394.78 2226.4 2394.78 2226.4 2394.78 1948.1 1915.83 1948.1 1915.83"/><polygon class="cls-7" points="2226.4 2394.78 2504.7 1915.83 1948.1 1915.83 2226.4 2394.78"/><polygon class="cls-2" points="2226.4 1436.87 1948.1 1915.82 1948.1 1915.83 2504.7 1915.83 2504.7 1915.82 2226.4 1436.87 2226.4 1436.87"/><polygon class="cls-4" points="1113.2 478.96 1669.8 478.96 1669.8 478.95 1391.5 0 1391.5 0 1113.2 478.95 1113.2 478.96"/><polygon class="cls-2" points="1669.8 2394.78 1948.1 1915.83 1391.5 1915.83 1669.8 2394.78"/><polygon class="cls-11" points="1113.2 2394.78 1391.5 1915.83 834.9 1915.83 1113.2 2394.78"/><polygon class="cls-1" points="556.6 2394.78 834.9 1915.83 278.3 1915.83 556.6 2394.78"/><polygon class="cls-13" points="556.6 1436.87 556.6 1436.87 278.3 1915.82 278.3 1915.83 834.9 1915.83 834.9 1915.82 556.6 1436.87"/><polygon class="cls-14" points="1669.8 1436.87 1391.5 1915.82 1391.5 1915.83 1948.1 1915.83 1948.1 1915.82 1669.8 1436.87 1669.8 1436.87"/><polygon class="cls-12" points="1948.1 1915.82 2226.4 1436.87 1669.8 1436.87 1948.1 1915.82"/><polygon class="cls-16" points="1113.2 1436.87 1113.2 1436.87 834.9 1915.82 834.9 1915.83 1391.5 1915.83 1391.5 1915.82 1113.2 1436.87"/><polygon class="cls-2" points="1669.8 1436.87 1669.8 1436.87 2226.4 1436.87 2226.4 1436.87 1948.1 957.91 1948.1 957.91 1669.8 1436.87"/><polygon class="cls-10" points="834.9 957.91 1391.5 957.91 1391.5 957.91 1113.2 478.96 1113.2 478.96 834.9 957.91 834.9 957.91"/><polygon class="cls-8" points="1669.8 478.96 1113.2 478.96 1391.5 957.91 1669.8 478.96"/><polygon class="cls-1" points="1391.5 957.91 1948.1 957.91 1948.1 957.91 1669.8 478.96 1669.8 478.96 1391.5 957.91 1391.5 957.91"/><polygon class="cls-9" points="834.9 1915.82 1113.2 1436.87 556.6 1436.87 834.9 1915.82"/><polygon class="cls-1" points="1391.5 1915.82 1669.8 1436.87 1113.2 1436.87 1391.5 1915.82"/><polygon class="cls-5" points="1948.1 957.91 1391.5 957.91 1669.8 1436.87 1948.1 957.91"/><polygon class="cls-3" points="556.6 1436.87 1113.2 1436.87 1113.2 1436.87 834.9 957.91 834.9 957.91 556.6 1436.87 556.6 1436.87"/><polygon class="cls-15" points="1113.2 1436.87 1669.8 1436.87 1669.8 1436.87 1391.5 957.91 1391.5 957.91 1113.2 1436.87 1113.2 1436.87"/><polygon class="cls-6" points="1391.5 957.91 834.9 957.91 1113.2 1436.87 1391.5 957.91"/><polygon class="cls-12" points="2504.7 1915.83 2226.4 2394.78 2226.4 2394.78 2783 2394.78 2783 2394.78 2504.7 1915.83 2504.7 1915.83"/><polygon class="cls-2" points="278.3 1915.83 278.3 1915.83 0 2394.78 0 2394.78 556.6 2394.78 556.6 2394.78 278.3 1915.83"/><polygon class="cls-1" points="1391.5 1915.83 1391.5 1915.83 1113.2 2394.78 1113.2 2394.78 1669.8 2394.78 1669.8 2394.78 1391.5 1915.83"/><polygon class="cls-1" points="834.9 1915.83 834.9 1915.83 556.6 2394.78 556.6 2394.78 1113.2 2394.78 1113.2 2394.78 834.9 1915.83"/><polygon class="cls-1" points="1948.1 1915.83 1669.8 2394.78 1669.8 2394.78 2226.4 2394.78 2226.4 2394.78 1948.1 1915.83 1948.1 1915.83"/><polygon class="cls-7" points="2226.4 2394.78 2504.7 1915.83 1948.1 1915.83 2226.4 2394.78"/><polygon class="cls-2" points="2226.4 1436.87 1948.1 1915.82 1948.1 1915.83 2504.7 1915.83 2504.7 1915.82 2226.4 1436.87 2226.4 1436.87"/><polygon class="cls-4" points="1113.2 478.96 1669.8 478.96 1669.8 478.95 1391.5 0 1391.5 0 1113.2 478.95 1113.2 478.96"/><polygon class="cls-2" points="1669.8 2394.78 1948.1 1915.83 1391.5 1915.83 1669.8 2394.78"/><polygon class="cls-11" points="1113.2 2394.78 1391.5 1915.83 834.9 1915.83 1113.2 2394.78"/><polygon class="cls-1" points="556.6 2394.78 834.9 1915.83 278.3 1915.83 556.6 2394.78"/><polygon class="cls-13" points="556.6 1436.87 556.6 1436.87 278.3 1915.82 278.3 1915.83 834.9 1915.83 834.9 1915.82 556.6 1436.87"/><polygon class="cls-14" points="1669.8 1436.87 1391.5 1915.82 1391.5 1915.83 1948.1 1915.83 1948.1 1915.82 1669.8 1436.87 1669.8 1436.87"/><polygon class="cls-12" points="1948.1 1915.82 2226.4 1436.87 1669.8 1436.87 1948.1 1915.82"/><polygon class="cls-16" points="1113.2 1436.87 1113.2 1436.87 834.9 1915.82 834.9 1915.83 1391.5 1915.83 1391.5 1915.82 1113.2 1436.87"/><polygon class="cls-2" points="1669.8 1436.87 1669.8 1436.87 2226.4 1436.87 2226.4 1436.87 1948.1 957.91 1948.1 957.91 1669.8 1436.87"/><polygon class="cls-10" points="834.9 957.91 1391.5 957.91 1391.5 957.91 1113.2 478.96 1113.2 478.96 834.9 957.91 834.9 957.91"/><polygon class="cls-8" points="1669.8 478.96 1113.2 478.96 1391.5 957.91 1669.8 478.96"/><polygon class="cls-1" points="1391.5 957.91 1948.1 957.91 1948.1 957.91 1669.8 478.96 1669.8 478.96 1391.5 957.91 1391.5 957.91"/><polygon class="cls-9" points="834.9 1915.82 1113.2 1436.87 556.6 1436.87 834.9 1915.82"/><polygon class="cls-1" points="1391.5 1915.82 1669.8 1436.87 1113.2 1436.87 1391.5 1915.82"/><polygon class="cls-5" points="1948.1 957.91 1391.5 957.91 1669.8 1436.87 1948.1 957.91"/><polygon class="cls-3" points="556.6 1436.87 1113.2 1436.87 1113.2 1436.87 834.9 957.91 834.9 957.91 556.6 1436.87 556.6 1436.87"/><polygon class="cls-15" points="1113.2 1436.87 1669.8 1436.87 1669.8 1436.87 1391.5 957.91 1391.5 957.91 1113.2 1436.87 1113.2 1436.87"/><polygon class="cls-6" points="1391.5 957.91 834.9 957.91 1113.2 1436.87 1391.5 957.91"/><polygon class="cls-12" points="2504.7 1915.83 2226.4 2394.78 2226.4 2394.78 2783 2394.78 2783 2394.78 2504.7 1915.83 2504.7 1915.83"/><polygon class="cls-2" points="278.3 1915.83 278.3 1915.83 0 2394.78 0 2394.78 556.6 2394.78 556.6 2394.78 278.3 1915.83"/><polygon class="cls-1" points="1391.5 1915.83 1391.5 1915.83 1113.2 2394.78 1113.2 2394.78 1669.8 2394.78 1669.8 2394.78 1391.5 1915.83"/><polygon class="cls-1" points="834.9 1915.83 834.9 1915.83 556.6 2394.78 556.6 2394.78 1113.2 2394.78 1113.2 2394.78 834.9 1915.83"/><polygon class="cls-1" points="1948.1 1915.83 1669.8 2394.78 1669.8 2394.78 2226.4 2394.78 2226.4 2394.78 1948.1 1915.83 1948.1 1915.83"/><polygon class="cls-7" points="2226.4 2394.78 2504.7 1915.83 1948.1 1915.83 2226.4 2394.78"/><polygon class="cls-2" points="2226.4 1436.87 1948.1 1915.82 1948.1 1915.83 2504.7 1915.83 2504.7 1915.82 2226.4 1436.87 2226.4 1436.87"/><polygon class="cls-4" points="1113.2 478.96 1669.8 478.96 1669.8 478.95 1391.5 0 1391.5 0 1113.2 478.95 1113.2 478.96"/><polygon class="cls-2" points="1669.8 2394.78 1948.1 1915.83 1391.5 1915.83 1669.8 2394.78"/><polygon class="cls-11" points="1113.2 2394.78 1391.5 1915.83 834.9 1915.83 1113.2 2394.78"/><polygon class="cls-1" points="556.6 2394.78 834.9 1915.83 278.3 1915.83 556.6 2394.78"/><polygon class="cls-13" points="556.6 1436.87 556.6 1436.87 278.3 1915.82 278.3 1915.83 834.9 1915.83 834.9 1915.82 556.6 1436.87"/><polygon class="cls-14" points="1669.8 1436.87 1391.5 1915.82 1391.5 1915.83 1948.1 1915.83 1948.1 1915.82 1669.8 1436.87 1669.8 1436.87"/><polygon class="cls-12" points="1948.1 1915.82 2226.4 1436.87 1669.8 1436.87 1948.1 1915.82"/><polygon class="cls-16" points="1113.2 1436.87 1113.2 1436.87 834.9 1915.82 834.9 1915.83 1391.5 1915.83 1391.5 1915.82 1113.2 1436.87"/><polygon class="cls-2" points="1669.8 1436.87 1669.8 1436.87 2226.4 1436.87 2226.4 1436.87 1948.1 957.91 1948.1 957.91 1669.8 1436.87"/><polygon class="cls-10" points="834.9 957.91 1391.5 957.91 1391.5 957.91 1113.2 478.96 1113.2 478.96 834.9 957.91 834.9 957.91"/><polygon class="cls-8" points="1669.8 478.96 1113.2 478.96 1391.5 957.91 1669.8 478.96"/><polygon class="cls-1" points="1391.5 957.91 1948.1 957.91 1948.1 957.91 1669.8 478.96 1669.8 478.96 1391.5 957.91 1391.5 957.91"/><polygon class="cls-9" points="834.9 1915.82 1113.2 1436.87 556.6 1436.87 834.9 1915.82"/><polygon class="cls-1" points="1391.5 1915.82 1669.8 1436.87 1113.2 1436.87 1391.5 1915.82"/><polygon class="cls-5" points="1948.1 957.91 1391.5 957.91 1669.8 1436.87 1948.1 957.91"/><polygon class="cls-3" points="556.6 1436.87 1113.2 1436.87 1113.2 1436.87 834.9 957.91 834.9 957.91 556.6 1436.87 556.6 1436.87"/><polygon class="cls-15" points="1113.2 1436.87 1669.8 1436.87 1669.8 1436.87 1391.5 957.91 1391.5 957.91 1113.2 1436.87 1113.2 1436.87"/><polygon class="cls-6" points="1391.5 957.91 834.9 957.91 1113.2 1436.87 1391.5 957.91"/><polygon class="cls-12" points="2504.7 1915.83 2226.4 2394.78 2226.4 2394.78 2783 2394.78 2783 2394.78 2504.7 1915.83 2504.7 1915.83"/><polygon class="cls-2" points="278.3 1915.83 278.3 1915.83 0 2394.78 0 2394.78 556.6 2394.78 556.6 2394.78 278.3 1915.83"/><polygon class="cls-1" points="1391.5 1915.83 1391.5 1915.83 1113.2 2394.78 1113.2 2394.78 1669.8 2394.78 1669.8 2394.78 1391.5 1915.83"/><polygon class="cls-1" points="834.9 1915.83 834.9 1915.83 556.6 2394.78 556.6 2394.78 1113.2 2394.78 1113.2 2394.78 834.9 1915.83"/><polygon class="cls-1" points="1948.1 1915.83 1669.8 2394.78 1669.8 2394.78 2226.4 2394.78 2226.4 2394.78 1948.1 1915.83 1948.1 1915.83"/><polygon class="cls-7" points="2226.4 2394.78 2504.7 1915.83 1948.1 1915.83 2226.4 2394.78"/><polygon class="cls-2" points="2226.4 1436.87 1948.1 1915.82 1948.1 1915.83 2504.7 1915.83 2504.7 1915.82 2226.4 1436.87 2226.4 1436.87"/><polygon class="cls-4" points="1113.2 478.96 1669.8 478.96 1669.8 478.95 1391.5 0 1391.5 0 1113.2 478.95 1113.2 478.96"/><polygon class="cls-2" points="1669.8 2394.78 1948.1 1915.83 1391.5 1915.83 1669.8 2394.78"/><polygon class="cls-11" points="1113.2 2394.78 1391.5 1915.83 834.9 1915.83 1113.2 2394.78"/><polygon class="cls-1" points="556.6 2394.78 834.9 1915.83 278.3 1915.83 556.6 2394.78"/><polygon class="cls-13" points="556.6 1436.87 556.6 1436.87 278.3 1915.82 278.3 1915.83 834.9 1915.83 834.9 1915.82 556.6 1436.87"/><polygon class="cls-14" points="1669.8 1436.87 1391.5 1915.82 1391.5 1915.83 1948.1 1915.83 1948.1 1915.82 1669.8 1436.87 1669.8 1436.87"/><polygon class="cls-12" points="1948.1 1915.82 2226.4 1436.87 1669.8 1436.87 1948.1 1915.82"/><polygon class="cls-16" points="1113.2 1436.87 1113.2 1436.87 834.9 1915.82 834.9 1915.83 1391.5 1915.83 1391.5 1915.82 1113.2 1436.87"/><polygon class="cls-2" points="1669.8 1436.87 1669.8 1436.87 2226.4 1436.87 2226.4 1436.87 1948.1 957.91 1948.1 957.91 1669.8 1436.87"/><polygon class="cls-10" points="834.9 957.91 1391.5 957.91 1391.5 957.91 1113.2 478.96 1113.2 478.96 834.9 957.91 834.9 957.91"/><polygon class="cls-8" points="1669.8 478.96 1113.2 478.96 1391.5 957.91 1669.8 478.96"/><polygon class="cls-1" points="1391.5 957.91 1948.1 957.91 1948.1 957.91 1669.8 478.96 1669.8 478.96 1391.5 957.91 1391.5 957.91"/><polygon class="cls-9" points="834.9 1915.82 1113.2 1436.87 556.6 1436.87 834.9 1915.82"/><polygon class="cls-1" points="1391.5 1915.82 1669.8 1436.87 1113.2 1436.87 1391.5 1915.82"/><polygon class="cls-5" points="1948.1 957.91 1391.5 957.91 1669.8 1436.87 1948.1 957.91"/><polygon class="cls-3" points="556.6 1436.87 1113.2 1436.87 1113.2 1436.87 834.9 957.91 834.9 957.91 556.6 1436.87 556.6 1436.87"/><polygon class="cls-15" points="1113.2 1436.87 1669.8 1436.87 1669.8 1436.87 1391.5 957.91 1391.5 957.91 1113.2 1436.87 1113.2 1436.87"/><polygon class="cls-6" points="1391.5 957.91 834.9 957.91 1113.2 1436.87 1391.5 957.91"/><polygon class="cls-12" points="2504.7 1915.83 2226.4 2394.78 2226.4 2394.78 2783 2394.78 2783 2394.78 2504.7 1915.83 2504.7 1915.83"/><polygon class="cls-2" points="278.3 1915.83 278.3 1915.83 0 2394.78 0 2394.78 556.6 2394.78 556.6 2394.78 278.3 1915.83"/><polygon class="cls-1" points="1391.5 1915.83 1391.5 1915.83 1113.2 2394.78 1113.2 2394.78 1669.8 2394.78 1669.8 2394.78 1391.5 1915.83"/><polygon class="cls-1" points="834.9 1915.83 834.9 1915.83 556.6 2394.78 556.6 2394.78 1113.2 2394.78 1113.2 2394.78 834.9 1915.83"/><polygon class="cls-1" points="1948.1 1915.83 1669.8 2394.78 1669.8 2394.78 2226.4 2394.78 2226.4 2394.78 1948.1 1915.83 1948.1 1915.83"/><polygon class="cls-7" points="2226.4 2394.78 2504.7 1915.83 1948.1 1915.83 2226.4 2394.78"/><polygon class="cls-2" points="2226.4 1436.87 1948.1 1915.82 1948.1 1915.83 2504.7 1915.83 2504.7 1915.82 2226.4 1436.87 2226.4 1436.87"/><polygon class="cls-4" points="1113.2 478.96 1669.8 478.96 1669.8 478.95 1391.5 0 1391.5 0 1113.2 478.95 1113.2 478.96"/><polygon class="cls-2" points="1669.8 2394.78 1948.1 1915.83 1391.5 1915.83 1669.8 2394.78"/><polygon class="cls-11" points="1113.2 2394.78 1391.5 1915.83 834.9 1915.83 1113.2 2394.78"/><polygon class="cls-1" points="556.6 2394.78 834.9 1915.83 278.3 1915.83 556.6 2394.78"/><polygon class="cls-13" points="556.6 1436.87 556.6 1436.87 278.3 1915.82 278.3 1915.83 834.9 1915.83 834.9 1915.82 556.6 1436.87"/><polygon class="cls-14" points="1669.8 1436.87 1391.5 1915.82 1391.5 1915.83 1948.1 1915.83 1948.1 1915.82 1669.8 1436.87 1669.8 1436.87"/><polygon class="cls-12" points="1948.1 1915.82 2226.4 1436.87 1669.8 1436.87 1948.1 1915.82"/><polygon class="cls-16" points="1113.2 1436.87 1113.2 1436.87 834.9 1915.82 834.9 1915.83 1391.5 1915.83 1391.5 1915.82 1113.2 1436.87"/><polygon class="cls-2" points="1669.8 1436.87 1669.8 1436.87 2226.4 1436.87 2226.4 1436.87 1948.1 957.91 1948.1 957.91 1669.8 1436.87"/><polygon class="cls-10" points="834.9 957.91 1391.5 957.91 1391.5 957.91 1113.2 478.96 1113.2 478.96 834.9 957.91 834.9 957.91"/><polygon class="cls-8" points="1669.8 478.96 1113.2 478.96 1391.5 957.91 1669.8 478.96"/><polygon class="cls-1" points="1391.5 957.91 1948.1 957.91 1948.1 957.91 1669.8 478.96 1669.8 478.96 1391.5 957.91 1391.5 957.91"/><polygon class="cls-9" points="834.9 1915.82 1113.2 1436.87 556.6 1436.87 834.9 1915.82"/><polygon class="cls-1" points="1391.5 1915.82 1669.8 1436.87 1113.2 1436.87 1391.5 1915.82"/><polygon class="cls-5" points="1948.1 957.91 1391.5 957.91 1669.8 1436.87 1948.1 957.91"/><polygon class="cls-3" points="556.6 1436.87 1113.2 1436.87 1113.2 1436.87 834.9 957.91 834.9 957.91 556.6 1436.87 556.6 1436.87"/><polygon class="cls-15" points="1113.2 1436.87 1669.8 1436.87 1669.8 1436.87 1391.5 957.91 1391.5 957.91 1113.2 1436.87 1113.2 1436.87"/><polygon class="cls-6" points="1391.5 957.91 834.9 957.91 1113.2 1436.87 1391.5 957.91"/><polygon class="cls-12" points="2504.7 1915.83 2226.4 2394.78 2226.4 2394.78 2783 2394.78 2783 2394.78 2504.7 1915.83 2504.7 1915.83"/></g></svg>